<?xml version="1.0" encoding="UTF-8"?>
<svg width="700pt" height="700pt" version="1.1" viewBox="0 0 700 700" xmlns="http://www.w3.org/2000/svg" xmlns:xlink="http://www.w3.org/1999/xlink">
 <defs>
  <symbol id="o" overflow="visible">
   <path d="m36.078-2.1562c-1.8672 0.96875-3.8086 1.6992-5.8281 2.1875-2.0117 0.48828-4.1094 0.73438-6.2969 0.73438-6.543 0-11.727-1.8281-15.547-5.4844-3.8125-3.6562-5.7188-8.6133-5.7188-14.875 0-6.2695 1.9062-11.234 5.7188-14.891 3.8203-3.6562 9.0039-5.4844 15.547-5.4844 2.1875 0 4.2852 0.25 6.2969 0.75 2.0195 0.49219 3.9609 1.2148 5.8281 2.1719v8.125c-1.875-1.2812-3.7266-2.2188-5.5469-2.8125-1.8242-0.59375-3.7461-0.89062-5.7656-0.89062-3.6172 0-6.4609 1.1562-8.5312 3.4688-2.0625 2.3125-3.0938 5.5-3.0938 9.5625 0 4.0547 1.0312 7.2344 3.0938 9.5469 2.0703 2.3125 4.9141 3.4688 8.5312 3.4688 2.0195 0 3.9414-0.29688 5.7656-0.89062 1.8203-0.59375 3.6719-1.5312 5.5469-2.8125z"/>
  </symbol>
  <symbol id="h" overflow="visible">
   <path d="m26.391-21.422c-0.82422-0.38281-1.6406-0.67188-2.4531-0.85938s-1.6328-0.28125-2.4531-0.28125c-2.4297 0-4.293 0.77734-5.5938 2.3281-1.3047 1.5547-1.9531 3.7773-1.9531 6.6719v13.562h-9.4219v-29.453h9.4219v4.8438c1.207-1.9258 2.5938-3.332 4.1562-4.2188 1.5703-0.88281 3.4531-1.3281 5.6406-1.3281 0.32031 0 0.66406 0.015625 1.0312 0.046875 0.36328 0.023437 0.89844 0.074219 1.6094 0.15625z"/>
  </symbol>
  <symbol id="a" overflow="visible">
   <path d="m33.922-14.797v2.6719h-22.016c0.22656 2.2109 1.0234 3.8672 2.3906 4.9688 1.375 1.1055 3.2852 1.6562 5.7344 1.6562 1.9766 0 4.0039-0.28906 6.0781-0.875 2.082-0.58203 4.2188-1.4727 6.4062-2.6719v7.2656c-2.2188 0.83594-4.4453 1.4648-6.6719 1.8906-2.2305 0.4375-4.4531 0.65625-6.6719 0.65625-5.3359 0-9.4805-1.3516-12.438-4.0625-2.9492-2.707-4.4219-6.5078-4.4219-11.406 0-4.8008 1.4453-8.5781 4.3438-11.328 2.9062-2.75 6.8984-4.125 11.984-4.125 4.625 0 8.3281 1.3984 11.109 4.1875 2.7812 2.7812 4.1719 6.5078 4.1719 11.172zm-9.6875-3.1406c0-1.7812-0.52344-3.2188-1.5625-4.3125-1.043-1.0938-2.4023-1.6406-4.0781-1.6406-1.8242 0-3.3086 0.51172-4.4531 1.5312-1.1367 1.0234-1.8438 2.4961-2.125 4.4219z"/>
  </symbol>
  <symbol id="g" overflow="visible">
   <path d="m17.719-13.25c-1.9609 0-3.4375 0.33594-4.4375 1-0.99219 0.66797-1.4844 1.6484-1.4844 2.9375 0 1.1992 0.39844 2.1367 1.2031 2.8125 0.80078 0.66797 1.9102 1 3.3281 1 1.7695 0 3.2578-0.63281 4.4688-1.9062 1.207-1.2695 1.8125-2.8594 1.8125-4.7656v-1.0781zm14.375-3.5469v16.797h-9.4844v-4.3594c-1.2617 1.7812-2.6836 3.0859-4.2656 3.9062-1.5742 0.8125-3.4922 1.2188-5.75 1.2188-3.0547 0-5.5312-0.89062-7.4375-2.6719-1.8984-1.7812-2.8438-4.0859-2.8438-6.9219 0-3.457 1.1875-5.9883 3.5625-7.5938 2.375-1.6133 6.1016-2.4219 11.188-2.4219h5.5469v-0.75c0-1.4883-0.58984-2.5781-1.7656-3.2656-1.168-0.6875-2.9961-1.0312-5.4844-1.0312-2.0234 0-3.9023 0.20312-5.6406 0.60938-1.7305 0.39844-3.3398 0.99609-4.8281 1.7969v-7.1719c2.0078-0.48828 4.0312-0.85938 6.0625-1.1094 2.0391-0.25781 4.0781-0.39062 6.1094-0.39062 5.3125 0 9.1445 1.0469 11.5 3.1406 2.3516 2.0938 3.5312 5.5 3.5312 10.219z"/>
  </symbol>
  <symbol id="f" overflow="visible">
   <path d="m14.797-37.812v8.3594h9.7031v6.7344h-9.7031v12.484c0 1.375 0.26953 2.3047 0.8125 2.7812 0.55078 0.48047 1.6289 0.71875 3.2344 0.71875h4.8438v6.7344h-8.0781c-3.7109 0-6.3398-0.77344-7.8906-2.3281-1.5547-1.5508-2.3281-4.1875-2.3281-7.9062v-12.484h-4.6875v-6.7344h4.6875v-8.3594z"/>
  </symbol>
  <symbol id="e" overflow="visible">
   <path d="m24.562-25.141v-15.766h9.4531v40.906h-9.4531v-4.2656c-1.3047 1.7422-2.7344 3.0156-4.2969 3.8281-1.5547 0.80078-3.3555 1.2031-5.4062 1.2031-3.6367 0-6.6211-1.4414-8.9531-4.3281-2.3242-2.8828-3.4844-6.5977-3.4844-11.141 0-4.5312 1.1602-8.2383 3.4844-11.125 2.332-2.8828 5.3164-4.3281 8.9531-4.3281 2.0312 0 3.8281 0.41406 5.3906 1.2344 1.5703 0.8125 3.0078 2.0742 4.3125 3.7812zm-6.2188 19.062c2.0195 0 3.5625-0.73438 4.625-2.2031s1.5938-3.6094 1.5938-6.4219c0-2.8008-0.53125-4.9375-1.5938-6.4062s-2.6055-2.2031-4.625-2.2031c-1.9922 0-3.5156 0.73438-4.5781 2.2031s-1.5938 3.6055-1.5938 6.4062c0 2.8125 0.53125 4.9531 1.5938 6.4219s2.5859 2.2031 4.5781 2.2031z"/>
  </symbol>
  <symbol id="d" overflow="visible">
   <path d="m20.188-6.0781c2.0195 0 3.5547-0.73438 4.6094-2.2031 1.0625-1.4688 1.5938-3.6094 1.5938-6.4219 0-2.8008-0.53125-4.9375-1.5938-6.4062-1.0547-1.4688-2.5898-2.2031-4.6094-2.2031-2.0117 0-3.5586 0.74219-4.6406 2.2188-1.0742 1.4805-1.6094 3.6094-1.6094 6.3906 0 2.793 0.53516 4.9297 1.6094 6.4062 1.082 1.4805 2.6289 2.2188 4.6406 2.2188zm-6.25-19.062c1.2891-1.707 2.7227-2.9688 4.2969-3.7812 1.582-0.82031 3.3984-1.2344 5.4531-1.2344 3.625 0 6.6016 1.4453 8.9375 4.3281 2.332 2.8867 3.5 6.5938 3.5 11.125 0 4.543-1.168 8.2578-3.5 11.141-2.3359 2.8867-5.3125 4.3281-8.9375 4.3281-2.0547 0-3.8711-0.40625-5.4531-1.2188-1.5742-0.82031-3.0078-2.0938-4.2969-3.8125v4.2656h-9.4219v-40.906h9.4219z"/>
  </symbol>
  <symbol id="c" overflow="visible">
   <path d="m0.65625-29.453h9.4062l7.9219 19.984 6.7344-19.984h9.4062l-12.375 32.234c-1.25 3.2812-2.7031 5.5703-4.3594 6.875-1.6562 1.3125-3.8438 1.9688-6.5625 1.9688h-5.4375v-6.1875h2.9375c1.6016 0 2.7656-0.25781 3.4844-0.76562 0.72656-0.5 1.2969-1.4062 1.7031-2.7188l0.26562-0.82812z"/>
  </symbol>
  <symbol id="b" overflow="visible">
   <path d="m15.062-31.609v23.953h3.625c4.1328 0 7.2891-1.0195 9.4688-3.0625 2.1875-2.0508 3.2812-5.0352 3.2812-8.9531 0-3.8828-1.0898-6.8438-3.2656-8.875-2.168-2.0391-5.3281-3.0625-9.4844-3.0625zm-10.125-7.6406h10.672c5.9688 0 10.41 0.42969 13.328 1.2812 2.9141 0.84375 5.4141 2.2812 7.5 4.3125 1.8438 1.7734 3.207 3.8125 4.0938 6.125 0.89453 2.3125 1.3438 4.9336 1.3438 7.8594 0 2.9688-0.44922 5.6172-1.3438 7.9375-0.88672 2.3242-2.25 4.3711-4.0938 6.1406-2.1055 2.0312-4.6328 3.4766-7.5781 4.3281-2.9375 0.84375-7.3555 1.2656-13.25 1.2656h-10.672z"/>
  </symbol>
  <symbol id="n" overflow="visible">
   <path d="m22.875-32.625c-3.0859 0-5.4805 1.1406-7.1875 3.4219-1.6992 2.2734-2.5469 5.4766-2.5469 9.6094 0 4.125 0.84766 7.3281 2.5469 9.6094 1.707 2.2734 4.1016 3.4062 7.1875 3.4062 3.1016 0 5.5039-1.1328 7.2031-3.4062 1.6953-2.2812 2.5469-5.4844 2.5469-9.6094 0-4.1328-0.85156-7.3359-2.5469-9.6094-1.6992-2.2812-4.1016-3.4219-7.2031-3.4219zm0-7.3438c6.3125 0 11.254 1.8086 14.828 5.4219 3.5703 3.6172 5.3594 8.6016 5.3594 14.953 0 6.3555-1.7891 11.34-5.3594 14.953-3.5742 3.6055-8.5156 5.4062-14.828 5.4062-6.293 0-11.23-1.8008-14.812-5.4062-3.5859-3.6133-5.375-8.5977-5.375-14.953 0-6.3516 1.7891-11.336 5.375-14.953 3.582-3.6133 8.5195-5.4219 14.812-5.4219z"/>
  </symbol>
  <symbol id="m" overflow="visible">
   <path d="m4.9375-39.25h10.125v23.531c0 3.2422 0.53125 5.5586 1.5938 6.9531 1.0625 1.3984 2.7891 2.0938 5.1875 2.0938 2.4141 0 4.1562-0.69531 5.2188-2.0938 1.0625-1.3945 1.5938-3.7109 1.5938-6.9531v-23.531h10.125v23.531c0 5.5547-1.3984 9.6875-4.1875 12.406-2.7812 2.7188-7.0312 4.0781-12.75 4.0781-5.6992 0-9.9453-1.3594-12.734-4.0781-2.7812-2.7188-4.1719-6.8516-4.1719-12.406z"/>
  </symbol>
  <symbol id="l" overflow="visible">
   <path d="m20.672-24.062c1.5938 0 2.8008-0.34766 3.625-1.0469 0.82031-0.69531 1.2344-1.7266 1.2344-3.0938 0-1.3516-0.41406-2.3828-1.2344-3.0938-0.82422-0.70703-2.0312-1.0625-3.625-1.0625h-5.6094v8.2969zm0.32812 17.172c2.0391 0 3.5703-0.42578 4.5938-1.2812 1.0195-0.86328 1.5312-2.1602 1.5312-3.8906 0-1.707-0.51172-2.9844-1.5312-3.8281-1.0117-0.85156-2.543-1.2812-4.5938-1.2812h-5.9375v10.281zm9.4219-14.109c2.1641 0.625 3.8438 1.793 5.0312 3.5 1.1953 1.6992 1.7969 3.7812 1.7969 6.25 0 3.7812-1.2812 6.6055-3.8438 8.4688-2.5547 1.8555-6.4375 2.7812-11.656 2.7812h-16.812v-39.25h15.203c5.4453 0 9.3945 0.82422 11.844 2.4688 2.4453 1.6484 3.6719 4.2812 3.6719 7.9062 0 1.918-0.44922 3.5469-1.3438 4.8906-0.89844 1.3359-2.1953 2.3281-3.8906 2.9844z"/>
  </symbol>
  <symbol id="k" overflow="visible">
   <path d="m4.9375-39.25h10.125v31.594h17.781v7.6562h-27.906z"/>
  </symbol>
  <symbol id="j" overflow="visible">
   <path d="m4.9375-39.25h27.328v7.6406h-17.203v7.3125h16.172v7.6562h-16.172v8.9844h17.781v7.6562h-27.906z"/>
  </symbol>
  <symbol id="i" overflow="visible">
   <path d="m32.266-38.016v8.3125c-2.1562-0.96875-4.2617-1.6953-6.3125-2.1875-2.0547-0.48828-3.9922-0.73438-5.8125-0.73438-2.418 0-4.2031 0.33594-5.3594 1-1.1562 0.66797-1.7344 1.6992-1.7344 3.0938 0 1.0547 0.38281 1.875 1.1562 2.4688 0.78125 0.58594 2.1953 1.0859 4.25 1.5l4.3125 0.875c4.3633 0.875 7.4609 2.2109 9.2969 4 1.8438 1.7812 2.7656 4.3242 2.7656 7.625 0 4.3242-1.2891 7.543-3.8594 9.6562-2.5625 2.1172-6.4805 3.1719-11.75 3.1719-2.4922 0-4.9922-0.24219-7.5-0.71875-2.5-0.46875-5.0078-1.1641-7.5156-2.0938v-8.5469c2.5078 1.3359 4.9297 2.3398 7.2656 3.0156 2.3438 0.66797 4.6016 1 6.7812 1 2.207 0 3.8945-0.36328 5.0625-1.0938 1.1758-0.73828 1.7656-1.7891 1.7656-3.1562 0-1.2266-0.40234-2.1758-1.2031-2.8438-0.79297-0.66406-2.3828-1.2578-4.7656-1.7812l-3.9062-0.875c-3.9297-0.84375-6.8047-2.1797-8.625-4.0156-1.8125-1.8438-2.7188-4.3281-2.7188-7.4531 0-3.9062 1.2578-6.9102 3.7812-9.0156 2.5312-2.1016 6.1602-3.1562 10.891-3.1562 2.1562 0 4.375 0.16797 6.6562 0.5 2.2812 0.32422 4.6406 0.80859 7.0781 1.4531z"/>
  </symbol>
 </defs>
 <g>
  <path d="m220.77 280c-34.273 0-67.145 13.617-91.379 37.852-24.238 24.234-37.852 57.105-37.852 91.379-0.023437 39.133 17.684 76.168 48.16 100.71 30.473 24.551 70.43 33.969 108.66 25.613 38.23-8.3555 70.617-33.582 88.07-68.605 2.2227-4.4688 4.168-9.0742 5.8164-13.785 5.168-14.07 7.793-28.949 7.7539-43.938 0-34.273-13.617-67.145-37.852-91.379-24.234-24.234-57.105-37.852-91.379-37.852zm0 226.15c-25.707 0-50.359-10.211-68.535-28.387s-28.387-42.828-28.387-68.535 10.211-50.359 28.387-68.535c18.176-18.176 42.828-28.387 68.535-28.387s50.359 10.211 68.535 28.387c18.176 18.176 28.387 42.828 28.387 68.535s-10.211 50.359-28.387 68.535c-18.176 18.176-42.828 28.387-68.535 28.387z"/>
  <path d="m263.85 403.85h-37.695v-48.465c0-5.7695-3.0781-11.102-8.0742-13.988-5-2.8867-11.156-2.8867-16.156 0-4.9961 2.8867-8.0742 8.2188-8.0742 13.988v64.617c0 4.2852 1.6992 8.3945 4.7305 11.422 3.0273 3.0312 7.1367 4.7305 11.422 4.7305h53.848c5.7695 0 11.102-3.0781 13.988-8.0742 2.8867-5 2.8867-11.156 0-16.156-2.8867-4.9961-8.2188-8.0742-13.988-8.0742z"/>
  <path d="m259.21 129.23h9.2617c7.9258-0.6875 15.266-4.457 20.441-10.496 5.1758-6.043 7.7734-13.875 7.2344-21.812v-43.074c0.53906-7.9375-2.0586-15.77-7.2344-21.812-5.1758-6.0391-12.516-9.8086-20.441-10.496h-9.2617c-7.9258 0.6875-15.266 4.457-20.441 10.496-5.1758 6.043-7.7734 13.875-7.2344 21.812v43.074c-0.53906 7.9375 2.0586 15.77 7.2344 21.812 5.1758 6.0391 12.516 9.8086 20.441 10.496z"/>
  <path d="m474.6 129.23h9.2617c7.9219-0.6875 15.262-4.457 20.438-10.496 5.1758-6.043 7.7734-13.875 7.2383-21.812v-43.074c0.53516-7.9375-2.0625-15.77-7.2383-21.812-5.1758-6.0391-12.516-9.8086-20.438-10.496h-9.2617c-7.9258 0.6875-15.266 4.457-20.441 10.496-5.1758 6.043-7.7734 13.875-7.2383 21.812v43.074c-0.53516 7.9375 2.0625 15.77 7.2383 21.812 5.1758 6.0391 12.516 9.8086 20.441 10.496z"/>
  <path d="m565.38 64.617h-32.305c-2.9766 0-5.3867 2.4102-5.3867 5.3828v26.922c0 11.426-4.5391 22.383-12.617 30.461-8.0781 8.0781-19.035 12.617-30.457 12.617h-10.77c-11.426 0-22.383-4.5391-30.461-12.617-8.0781-8.0781-12.617-19.035-12.617-30.461v-26.922c0-1.4297-0.56641-2.7969-1.5781-3.8086-1.0078-1.0078-2.3789-1.5742-3.8086-1.5742h-107.69c-2.9727 0-5.3828 2.4102-5.3828 5.3828v26.922c0 11.426-4.5391 22.383-12.617 30.461-8.0781 8.0781-19.035 12.617-30.461 12.617h-10.77c-11.426 0-22.383-4.5391-30.461-12.617-8.0781-8.0781-12.617-19.035-12.617-30.461v-26.922c0-1.4297-0.56641-2.7969-1.5742-3.8086-1.0117-1.0078-2.3789-1.5742-3.8086-1.5742h-32.309c-11.422 0-22.379 4.5352-30.461 12.613-8.0781 8.082-12.613 19.039-12.613 30.461v177.91c6.7852-4.8398 13.992-9.0547 21.535-12.602v-73.77c0-2.9727 2.4141-5.3828 5.3867-5.3828h420c1.4258 0 2.7969 0.56641 3.8086 1.5742 1.0078 1.0117 1.5742 2.3789 1.5742 3.8086v231.54c0 5.7109-2.2695 11.191-6.3086 15.23-4.0391 4.0391-9.5156 6.3086-15.23 6.3086h-200.09c-2.2031 7.3828-4.9727 14.586-8.293 21.539h208.38c11.426 0 22.383-4.5391 30.461-12.617s12.617-19.035 12.617-30.461v-323.08c0-11.422-4.5391-22.379-12.617-30.461-8.0781-8.0781-19.035-12.613-30.461-12.613z"/>
  <use x="70" y="721.539062" xlink:href="#o"/>
  <use x="109.515625" y="721.539062" xlink:href="#h"/>
  <use x="136.070312" y="721.539062" xlink:href="#a"/>
  <use x="172.589844" y="721.539062" xlink:href="#g"/>
  <use x="208.925781" y="721.539062" xlink:href="#f"/>
  <use x="234.667969" y="721.539062" xlink:href="#a"/>
  <use x="271.1875" y="721.539062" xlink:href="#e"/>
  <use x="328.476562" y="721.539062" xlink:href="#d"/>
  <use x="367.023438" y="721.539062" xlink:href="#c"/>
  <use x="420.867187" y="721.539062" xlink:href="#b"/>
  <use x="465.5625" y="721.539062" xlink:href="#n"/>
  <use x="511.339844" y="721.539062" xlink:href="#m"/>
  <use x="555.0625" y="721.539062" xlink:href="#l"/>
  <use x="596.105469" y="721.539062" xlink:href="#k"/>
  <use x="630.414062" y="721.539062" xlink:href="#j"/>
  <use x="685.945312" y="721.539062" xlink:href="#i"/>
 </g>
</svg>